<svg width="194" height="24" viewBox="0 0 194 24" fill="none" xmlns="http://www.w3.org/2000/svg">
<path d="M159.945 23.3262L158.048 21.4294C158.012 21.3935 157.965 21.3747 157.915 21.3747H157.709C158.201 20.8045 158.5 20.0623 158.5 19.2498C158.5 17.4546 157.045 16 155.25 16C153.455 16 152 17.4546 152 19.2498C152 21.0451 153.455 22.4997 155.25 22.4997C156.062 22.4997 156.804 22.2013 157.375 21.7091V21.9153C157.375 21.9653 157.395 22.0122 157.429 22.0481L159.326 23.9449C159.4 24.0184 159.518 24.0184 159.592 23.9449L159.945 23.5918C160.018 23.5184 160.018 23.3996 159.945 23.3262ZM155.25 21.7497C153.869 21.7497 152.75 20.631 152.75 19.2498C152.75 17.8687 153.869 16.75 155.25 16.75C156.631 16.75 157.75 17.8687 157.75 19.2498C157.75 20.631 156.631 21.7497 155.25 21.7497Z" fill="#212121"/>
<path d="M193.017 19.1082L192.765 18.8557C192.597 18.6883 192.326 18.6883 192.159 18.8557L189.179 21.8531V8.42857C189.179 8.19189 188.987 8 188.75 8H188.393C188.156 8 187.964 8.19189 187.964 8.42857V21.8531L184.984 18.8557C184.817 18.6883 184.545 18.6883 184.378 18.8557L184.126 19.1082C183.958 19.2756 183.958 19.5469 184.126 19.7143L188.268 23.8745C188.436 24.0418 188.707 24.0418 188.874 23.8745L193.017 19.7143C193.185 19.5469 193.185 19.2756 193.017 19.1082Z" fill="#212121"/>
<g clip-path="url(#clip0_346_14299)">
<path d="M126 10H123.975C123.061 8.79313 121.627 8 120 8C118.373 8 116.939 8.79313 116.025 10H114C112.897 10 112 10.8972 112 12V22C112 23.1028 112.897 24 114 24H126C127.103 24 128 23.1028 128 22V12C128 10.8972 127.103 10 126 10ZM120 9C122.209 9 124 10.7909 124 13C124 15.2091 122.209 17 120 17C117.791 17 116 15.2091 116 13C116 10.7909 117.791 9 120 9ZM127 22C127 22.5522 126.552 23 126 23H114C113.448 23 113 22.5522 113 22V12C113 11.4478 113.448 11 114 11H115.424C115.154 11.6134 115 12.2881 115 13C115 15.7569 117.243 18 120 18C122.757 18 125 15.7569 125 13C125 12.2881 124.846 11.6134 124.576 11H126C126.552 11 127 11.4478 127 12V22ZM120 16C120.827 16 121.5 15.3272 121.5 14.5C121.5 14.065 121.311 13.6762 121.014 13.4022L121.959 11.1969C122.068 10.9434 121.951 10.6494 121.697 10.5406C121.444 10.4319 121.149 10.5491 121.04 10.8034L120.095 13.0097C118.987 12.9375 118.5 13.8953 118.5 14.5C118.5 15.3272 119.173 16 120 16ZM120 14C120.276 14 120.5 14.2238 120.5 14.5C120.5 14.7762 120.276 15 120 15C119.724 15 119.5 14.7762 119.5 14.5C119.5 14.2238 119.724 14 120 14Z" fill="#212121"/>
</g>
<g clip-path="url(#clip1_346_14299)">
<path d="M87 8H81C80.4478 8 80 8.44781 80 9V23C80 23.5522 80.4478 24 81 24H87C87.5522 24 88 23.5522 88 23V9C88 8.44781 87.5522 8 87 8ZM81 23V9H87V11H85.25C85.1119 11 85 11.1119 85 11.25V11.75C85 11.8881 85.1119 12 85.25 12H87V14H85.25C85.1119 14 85 14.1119 85 14.25V14.75C85 14.8881 85.1119 15 85.25 15H87V17H85.25C85.1119 17 85 17.1119 85 17.25V17.75C85 17.8881 85.1119 18 85.25 18H87V20H85.25C85.1119 20 85 20.1119 85 20.25V20.75C85 20.8881 85.1119 21 85.25 21H87V23H81Z" fill="#212121"/>
</g>
<path d="M12.2305 20.5117L13.0039 19.7383C13.1869 19.5553 13.1869 19.2585 13.0039 19.0754L6.94411 13.0157H20.2813C20.5401 13.0157 20.75 12.8058 20.75 12.5469V11.4532C20.75 11.1943 20.5401 10.9844 20.2813 10.9844H6.94411L13.0039 4.92465C13.1869 4.7416 13.1869 4.4448 13.0039 4.26172L12.2305 3.48836C12.0474 3.30531 11.7506 3.30531 11.5676 3.48836L3.38732 11.6686C3.20427 11.8516 3.20427 12.1484 3.38732 12.3315L11.5676 20.5118C11.7506 20.6948 12.0474 20.6948 12.2305 20.5117Z" fill="#212121"/>
<path d="M48.772 9.19066L48.1533 9.80935C48.0068 9.95579 48.0068 10.1932 48.1533 10.3397L53.8001 16L48.1533 21.6603C48.0068 21.8068 48.0068 22.0442 48.1533 22.1907L48.772 22.8094C48.9184 22.9558 49.1559 22.9558 49.3023 22.8094L55.8465 16.2652C55.993 16.1188 55.993 15.8813 55.8465 15.7348L49.3023 9.19066C49.1559 9.04419 48.9184 9.04419 48.772 9.19066Z" fill="#212121"/>
<defs>
<clipPath id="clip0_346_14299">
<rect width="16" height="16" fill="white" transform="translate(112 8)"/>
</clipPath>
<clipPath id="clip1_346_14299">
<rect width="8" height="16" fill="white" transform="translate(80 8)"/>
</clipPath>
</defs>
</svg>
