<svg width="231" height="100" viewBox="0 0 231 100" fill="none" xmlns="http://www.w3.org/2000/svg">
<g clip-path="url(#clip0_346_13572)">
<rect opacity="0.2" y="6" width="248" height="4" fill="#F9CF30"/>
<rect y="6" width="35" height="4" fill="#F9CF30"/>
</g>
<g clip-path="url(#clip1_346_13572)">
<rect opacity="0.2" y="22" width="248" height="4" fill="#F9CF30"/>
<rect y="22" width="55" height="4" fill="#F9CF30"/>
</g>
<g clip-path="url(#clip2_346_13572)">
<rect opacity="0.2" y="38" width="248" height="4" fill="#F9CF30"/>
<rect y="38" width="40" height="4" fill="#F9CF30"/>
</g>
<g clip-path="url(#clip3_346_13572)">
<rect opacity="0.2" y="54" width="248" height="4" fill="#F9CF30"/>
<rect y="54" width="50" height="4" fill="#F9CF30"/>
</g>
<g clip-path="url(#clip4_346_13572)">
<rect opacity="0.2" y="70" width="248" height="4" fill="#F9CF30"/>
<rect y="70" width="50" height="4" fill="#F9CF30"/>
</g>
<g clip-path="url(#clip5_346_13572)">
<rect opacity="0.2" y="86" width="248" height="4" fill="#F9CF30"/>
<rect y="86" width="90" height="4" fill="#F9CF30"/>
</g>
<defs>
<clipPath id="clip0_346_13572">
<rect y="6" width="231" height="4" rx="2" fill="white"/>
</clipPath>
<clipPath id="clip1_346_13572">
<rect y="22" width="231" height="4" rx="2" fill="white"/>
</clipPath>
<clipPath id="clip2_346_13572">
<rect y="38" width="231" height="4" rx="2" fill="white"/>
</clipPath>
<clipPath id="clip3_346_13572">
<rect y="54" width="231" height="4" rx="2" fill="white"/>
</clipPath>
<clipPath id="clip4_346_13572">
<rect y="70" width="231" height="4" rx="2" fill="white"/>
</clipPath>
<clipPath id="clip5_346_13572">
<rect y="86" width="231" height="4" rx="2" fill="white"/>
</clipPath>
</defs>
</svg>
